<svg width="32" height="32" fill="none" xmlns="http://www.w3.org/2000/svg"><g clip-path="url(#clip0_2_30)"><path fill-rule="evenodd" clip-rule="evenodd" d="M31.367 27.736c-.31.79-1.029 1.902-2.047 2.686a6.702 6.702 0 01-2.252 1.17c-1.028.305-2.293.408-3.868.408H8.8c-1.575 0-2.84-.103-3.867-.407a6.704 6.704 0 01-2.253-1.171C1.662 29.638.944 28.526.633 27.736.006 26.144 0 24.338 0 23.2V8.8c0-1.138.006-2.944.633-4.536.311-.79 1.029-1.902 2.047-2.686A6.703 6.703 0 014.933.408C5.96.102 7.225 0 8.8 0h14.4c1.575 0 2.84.103 3.868.407a6.705 6.705 0 012.253 1.171c1.017.784 1.735 1.896 2.046 2.686C31.994 5.856 32 7.662 32 8.8v14.4c0 1.137-.006 2.944-.633 4.536z" fill="url(#paint0_linear_2_30)"/><path d="M18.32 18.393c-.48-.506-1.323-.831-2.318-.831-.996 0-1.84.325-2.32.831-.25.265-.383.536-.425.922-.08.747-.035 1.391.053 2.42.083.981.242 2.289.448 3.621.148.948.267 1.46.376 1.826.176.594.836 1.113 1.868 1.113 1.031 0 1.69-.52 1.867-1.113.11-.366.229-.878.376-1.826a55.75 55.75 0 00.448-3.62c.088-1.03.133-1.674.053-2.421a1.472 1.472 0 00-.425-.922zm-4.935-4.51a2.619 2.619 0 105.238 0 2.619 2.619 0 00-5.238 0zm2.587-10.336c-6.125.017-11.144 4.986-11.22 11.111-.061 4.961 3.106 9.205 7.528 10.76a.15.15 0 00.2-.163 63.968 63.968 0 01-.164-1.153.387.387 0 00-.227-.305c-3.496-1.527-5.936-5.033-5.897-9.093.051-5.33 4.403-9.674 9.732-9.717 5.447-.044 9.893 4.375 9.893 9.813 0 4.02-2.43 7.483-5.898 8.997a.387.387 0 00-.227.306c-.05.38-.105.767-.163 1.152a.15.15 0 00.2.164c4.38-1.54 7.528-5.719 7.528-10.619 0-6.216-5.066-11.27-11.285-11.253zm-.204 5.163a6.105 6.105 0 016.34 6.093 6.081 6.081 0 01-1.928 4.445.466.466 0 00-.146.366c.023.42.015.826-.013 1.286-.008.122.13.2.23.131a7.536 7.536 0 003.297-6.228c0-4.255-3.545-7.699-7.837-7.532-3.988.154-7.188 3.443-7.24 7.434a7.535 7.535 0 003.296 6.327.148.148 0 00.23-.132 10.79 10.79 0 01-.012-1.286.466.466 0 00-.147-.365 6.083 6.083 0 01-1.925-4.61c.084-3.195 2.66-5.806 5.855-5.93z" fill="#fff"/></g><defs><linearGradient id="paint0_linear_2_30" x1="16" y1="0" x2="16" y2="32" gradientUnits="userSpaceOnUse"><stop stop-color="#F452FF"/><stop offset="1" stop-color="#832BC1"/></linearGradient><clipPath id="clip0_2_30"><path fill="#fff" d="M0 0h32v32H0z"/></clipPath></defs></svg>