<svg width="220" height="220" viewBox="0 0 220 220" fill="none" xmlns="http://www.w3.org/2000/svg">
<rect width="220" height="220" fill="black"/>
<path d="M113.315 182C99.1166 182 86.9268 178.996 76.7465 172.988C66.5662 166.846 58.7301 158.367 53.238 147.552C47.746 136.604 45 123.987 45 109.7C45 95.4137 47.746 82.7965 53.238 71.8481C58.7301 60.8997 66.5662 52.3545 76.7465 46.2127C86.9268 40.0709 99.1166 37 113.315 37C130.193 37 143.99 41.2058 154.706 49.6174C165.556 57.8955 172.321 69.5783 175 84.6658H146.669C144.928 77.0553 141.177 71.1137 135.417 66.8412C129.791 62.4351 122.29 60.232 112.913 60.232C99.9203 60.232 89.7398 64.6381 82.3725 73.4503C75.0052 82.2624 71.3215 94.346 71.3215 109.7C71.3215 125.055 75.0052 137.138 82.3725 145.95C89.7398 154.629 99.9203 158.968 112.913 158.968C122.29 158.968 129.791 156.965 135.417 152.96C141.177 148.821 144.928 143.146 146.669 135.936H175C172.321 150.356 165.556 161.639 154.706 169.783C143.99 177.928 130.193 182 113.315 182Z" fill="white"/>
</svg>
