<svg width="220" height="220" fill="none" xmlns="http://www.w3.org/2000/svg"><path fill="#000" d="M0 0h220v220H0z"/><path d="M113.315 182c-14.198 0-26.388-3.004-36.569-9.012-10.18-6.142-18.016-14.621-23.508-25.436C47.746 136.604 45 123.987 45 109.7c0-14.286 2.746-26.904 8.238-37.852C58.73 60.9 66.566 52.355 76.746 46.213 86.927 40.07 99.117 37 113.316 37c16.878 0 30.675 4.206 41.391 12.617 10.85 8.279 17.615 19.961 20.294 35.049H146.67c-1.741-7.61-5.492-13.552-11.252-17.825-5.626-4.406-13.127-6.609-22.504-6.609-12.993 0-23.173 4.406-30.54 13.218-7.368 8.812-11.052 20.896-11.052 36.25 0 15.355 3.684 27.438 11.052 36.25 7.367 8.679 17.547 13.018 30.54 13.018 9.377 0 16.878-2.003 22.504-6.008 5.76-4.139 9.511-9.814 11.252-17.024H175c-2.679 14.42-9.444 25.703-20.294 33.847C143.99 177.928 130.193 182 113.315 182z" fill="#fff"/></svg>