<svg width="160" height="33" fill="none" xmlns="http://www.w3.org/2000/svg"><path d="M12.475 25.42c-2.473 0-4.597-.525-6.37-1.575C4.332 22.772 2.967 21.29 2.01 19.4 1.053 17.487.575 15.282.575 12.785S1.053 8.083 2.01 6.17c.957-1.913 2.322-3.407 4.095-4.48C7.878.617 10.002.08 12.475.08c2.94 0 5.343.735 7.21 2.205 1.89 1.447 3.068 3.488 3.535 6.125h-4.935c-.303-1.33-.957-2.368-1.96-3.115-.98-.77-2.287-1.155-3.92-1.155-2.263 0-4.037.77-5.32 2.31-1.283 1.54-1.925 3.652-1.925 6.335s.642 4.795 1.925 6.335c1.283 1.517 3.057 2.275 5.32 2.275 1.633 0 2.94-.35 3.92-1.05 1.003-.723 1.657-1.715 1.96-2.975h4.935c-.467 2.52-1.645 4.492-3.535 5.915-1.867 1.423-4.27 2.135-7.21 2.135zm19.89 0c-1.493 0-2.718-.233-3.674-.7-.957-.49-1.669-1.132-2.135-1.925a5.082 5.082 0 01-.7-2.625c0-1.61.63-2.917 1.89-3.92 1.26-1.003 3.15-1.505 5.67-1.505h4.41v-.42c0-1.19-.339-2.065-1.015-2.625-.677-.56-1.517-.84-2.52-.84-.91 0-1.704.222-2.38.665-.677.42-1.097 1.05-1.26 1.89h-4.375c.116-1.26.536-2.357 1.26-3.29.746-.933 1.703-1.645 2.87-2.135 1.166-.513 2.473-.77 3.92-.77 2.473 0 4.421.618 5.845 1.855 1.423 1.237 2.135 2.987 2.135 5.25V25H38.49l-.42-2.8a6.42 6.42 0 01-2.17 2.31c-.91.607-2.089.91-3.535.91zm1.016-3.5c1.283 0 2.275-.42 2.975-1.26.723-.84 1.178-1.878 1.365-3.115h-3.815c-1.19 0-2.042.222-2.555.665-.514.42-.77.945-.77 1.575 0 .677.256 1.202.77 1.575.513.373 1.19.56 2.03.56zm19.675 3.5c-1.54 0-2.893-.245-4.06-.735-1.167-.513-2.1-1.213-2.8-2.1-.7-.887-1.12-1.913-1.26-3.08h4.515c.14.677.513 1.26 1.12 1.75.63.467 1.435.7 2.415.7s1.692-.198 2.135-.595c.466-.397.7-.852.7-1.365 0-.747-.327-1.248-.98-1.505-.654-.28-1.563-.548-2.73-.805a29.82 29.82 0 01-2.275-.595 11.68 11.68 0 01-2.135-.875 4.946 4.946 0 01-1.54-1.4c-.397-.583-.595-1.295-.595-2.135 0-1.54.606-2.835 1.82-3.885 1.236-1.05 2.963-1.575 5.18-1.575 2.053 0 3.686.478 4.9 1.435 1.236.957 1.971 2.275 2.205 3.955h-4.235c-.257-1.283-1.225-1.925-2.905-1.925-.84 0-1.493.163-1.96.49-.444.327-.665.735-.665 1.225 0 .513.338.922 1.015 1.225.676.303 1.575.583 2.695.84 1.213.28 2.322.595 3.325.945 1.026.327 1.843.828 2.45 1.505.607.653.91 1.598.91 2.835.023 1.073-.257 2.042-.84 2.905-.584.863-1.423 1.54-2.52 2.03-1.097.49-2.392.735-3.885.735zM70.758 25c-1.82 0-3.279-.443-4.375-1.33-1.097-.887-1.645-2.462-1.645-4.725v-7.56h-2.975V7.64h2.975l.525-4.655h3.955V7.64h4.69v3.745h-4.69v7.595c0 .84.175 1.423.525 1.75.373.303 1.003.455 1.89.455h2.17V25h-3.045zm12.281.42c-1.493 0-2.718-.233-3.675-.7-.957-.49-1.668-1.132-2.135-1.925a5.082 5.082 0 01-.7-2.625c0-1.61.63-2.917 1.89-3.92 1.26-1.003 3.15-1.505 5.67-1.505h4.41v-.42c0-1.19-.338-2.065-1.015-2.625-.677-.56-1.517-.84-2.52-.84-.91 0-1.703.222-2.38.665-.677.42-1.097 1.05-1.26 1.89H76.95c.117-1.26.537-2.357 1.26-3.29.747-.933 1.703-1.645 2.87-2.135 1.167-.513 2.473-.77 3.92-.77 2.473 0 4.422.618 5.845 1.855s2.135 2.987 2.135 5.25V25h-3.815l-.42-2.8a6.42 6.42 0 01-2.17 2.31c-.91.607-2.088.91-3.535.91zm1.015-3.5c1.283 0 2.275-.42 2.975-1.26.723-.84 1.178-1.878 1.365-3.115H84.58c-1.19 0-2.042.222-2.555.665-.513.42-.77.945-.77 1.575 0 .677.257 1.202.77 1.575s1.19.56 2.03.56zM99.778 25L94.703 7.64h4.445l3.01 12.495 3.5-12.495h4.97l3.5 12.495 3.045-12.495h4.445L116.508 25h-4.655l-3.71-12.985L104.433 25h-4.655zm29.063.42c-1.493 0-2.718-.233-3.675-.7-.956-.49-1.668-1.132-2.135-1.925a5.088 5.088 0 01-.7-2.625c0-1.61.63-2.917 1.89-3.92 1.26-1.003 3.15-1.505 5.67-1.505h4.41v-.42c0-1.19-.338-2.065-1.015-2.625-.676-.56-1.516-.84-2.52-.84-.91 0-1.703.222-2.38.665-.676.42-1.096 1.05-1.26 1.89h-4.375c.117-1.26.537-2.357 1.26-3.29.747-.933 1.704-1.645 2.87-2.135 1.167-.513 2.474-.77 3.92-.77 2.474 0 4.422.618 5.845 1.855 1.424 1.237 2.135 2.987 2.135 5.25V25h-3.815l-.42-2.8a6.41 6.41 0 01-2.17 2.31c-.91.607-2.088.91-3.535.91zm1.015-3.5c1.284 0 2.275-.42 2.975-1.26.724-.84 1.179-1.878 1.365-3.115h-3.815c-1.19 0-2.041.222-2.555.665-.513.42-.77.945-.77 1.575 0 .677.257 1.202.77 1.575.514.373 1.19.56 2.03.56zm14.089 10.78l4.025-8.855h-1.05L140.165 7.64h4.865l4.865 12.215L154.97 7.64h4.76L148.705 32.7h-4.76z" fill="#fff"/></svg>