<svg width="32" height="32" fill="none" xmlns="http://www.w3.org/2000/svg"><g clip-path="url(#clip0_2_65)"><path d="M16 .053C7.19.053.047 7.194.047 16.003c0 8.81 7.142 15.951 15.951 15.951 8.81 0 15.952-7.14 15.952-15.95 0-8.81-7.141-15.95-15.952-15.95V.052zm7.314 23.005a.994.994 0 01-1.367.33c-3.745-2.288-8.46-2.806-14.012-1.537a.995.995 0 01-.443-1.94c6.076-1.388 11.288-.79 15.493 1.78a.995.995 0 01.33 1.367zm1.953-4.343c-.36.585-1.126.77-1.71.41-4.288-2.636-10.824-3.4-15.896-1.86a1.245 1.245 0 01-1.552-.828 1.245 1.245 0 01.83-1.551c5.793-1.758 12.994-.907 17.918 2.12.585.36.77 1.125.41 1.709zm.167-4.523c-5.14-3.054-13.622-3.334-18.53-1.845a1.492 1.492 0 11-.867-2.855c5.635-1.71 15.001-1.38 20.92 2.134a1.49 1.49 0 11-1.522 2.566z" fill="#1ED760"/></g><defs><clipPath id="clip0_2_65"><path fill="#fff" d="M0 0h32v32H0z"/></clipPath></defs></svg>