<svg width="32" height="32" fill="none" xmlns="http://www.w3.org/2000/svg"><g clip-path="url(#clip0_2_50)"><path d="M15.938 30C23.703 30 30 23.704 30 15.937c0-7.766-6.296-14.062-14.063-14.062-7.766 0-14.062 6.296-14.062 14.063C1.875 23.703 8.171 30 15.938 30z" fill="#fff" stroke="#363F46" stroke-opacity=".69" stroke-width="2.426" stroke-linecap="round"/><path d="M8.303 9.999s-1.945 2.194-1.945 6.027 1.945 5.938 1.945 5.938" fill="#fff"/><path d="M8.303 9.999s-1.945 2.194-1.945 6.027 1.945 5.938 1.945 5.938" stroke="#FC7E0F" stroke-width="2.426" stroke-linecap="round"/><path d="M23.796 9.999s1.945 2.194 1.945 6.027-1.945 5.938-1.945 5.938" fill="#fff"/><path d="M23.796 9.999s1.945 2.194 1.945 6.027-1.945 5.938-1.945 5.938" stroke="#FC7E0F" stroke-width="2.426" stroke-linecap="round"/><path d="M20.694 12.563s1.31 1.63 1.278 3.455c-.04 2.194-1.262 3.399-1.262 3.399" fill="#fff"/><path d="M20.694 12.563s1.31 1.63 1.278 3.455c-.04 2.194-1.262 3.399-1.262 3.399" stroke="#FC7E0F" stroke-width="2.426" stroke-linecap="round"/><path d="M11.34 12.563s-1.31 1.63-1.277 3.455c.04 2.194 1.262 3.399 1.262 3.399" fill="#fff"/><path d="M11.34 12.563s-1.31 1.63-1.277 3.455c.04 2.194 1.262 3.399 1.262 3.399" stroke="#FC7E0F" stroke-width="2.426" stroke-linecap="round"/><path d="M15.936 18.12a2.183 2.183 0 100-4.365 2.183 2.183 0 000 4.366z" fill="#363F46" fill-opacity=".69"/><path d="M16.305 17.977l-1.549-.416-2.578 9.631 1.548.416 2.579-9.631z" fill="#363F46" fill-opacity=".69"/><path d="M15.705 17.964l1.542-.41 2.565 9.64-1.542.409-2.565-9.639z" fill="#363F46" fill-opacity=".69"/><path d="M14.273 23.162l.572-.587 3.97 3.868-.573.587-3.97-3.868z" fill="#363F46" fill-opacity=".69"/><path d="M17.635 23.183l-.518-.526-3.936 3.909.518.525 3.936-3.909z" fill="#363F46" fill-opacity=".69"/></g><defs><clipPath id="clip0_2_50"><path fill="#fff" d="M0 0h32v32H0z"/></clipPath></defs></svg>