<svg width="32" height="32" fill="none" xmlns="http://www.w3.org/2000/svg"><g clip-path="url(#clip0_2_26)"><path d="M15.66 30c7.731 0 14-6.268 14-14s-6.269-14-14-14c-7.733 0-14 6.268-14 14s6.267 14 14 14z" fill="#fff"/><path d="M16.186 0C7.611 0 .66 7.163.66 16s6.952 16 15.527 16c8.576 0 15.527-7.163 15.527-16S24.764 0 16.187 0zm4.81 16.148c0-2.655-2.089-4.808-4.666-4.808-2.577 0-4.666 2.152-4.666 4.808 0 2.655 2.09 4.808 4.666 4.808v2.748c-4.05 0-7.332-3.383-7.332-7.556s3.282-7.556 7.332-7.556 7.333 3.383 7.333 7.556h-2.667zm4.5 0c0-5.216-4.104-9.444-9.166-9.444s-9.165 4.228-9.165 9.444c0 5.216 4.103 9.444 9.165 9.444v3.148c-6.749 0-12.22-5.638-12.22-12.592 0-6.955 5.471-12.592 12.22-12.592 6.75 0 12.22 5.637 12.22 12.592h-3.055z" fill="#F43E37"/></g><defs><clipPath id="clip0_2_26"><path fill="#fff" d="M0 0h32v32H0z"/></clipPath></defs></svg>