<svg width="32" height="32" fill="none" xmlns="http://www.w3.org/2000/svg"><g clip-path="url(#clip0_2_33)"><path d="M31.66 16c0 8.889-7.133 16-15.768 16C7.258 32 0 24.889 0 16S7.133 0 15.767 0 31.66 7.111 31.66 16z" fill="url(#paint0_linear_2_33)"/><path d="M4.67 17.069c.006-.053.044-.09.09-.09s.084.037.091.09l.197 1.277L4.85 19.6c-.007.053-.044.09-.09.09-.047 0-.085-.038-.091-.09l-.166-1.255.166-1.277zm.928-.88c.048 0 .087.038.095.093l.253 2.064-.254 2.019c-.007.055-.046.093-.094.093s-.088-.04-.094-.094l-.223-2.018.223-2.064c.007-.054.046-.093.094-.093zM9.03 14.55a.176.176 0 01.172-.173c.09 0 .166.076.171.173l.2 3.798-.2 2.454a.177.177 0 01-.171.172.176.176 0 01-.172-.172l-.177-2.454.177-3.798zm-1.778 1.28c.006-.076.063-.133.133-.133s.127.057.133.133l.227 2.517-.227 2.434c-.006.076-.063.133-.133.133s-.127-.057-.133-.133l-.2-2.434.2-2.517zm4.005 4.932a.214.214 0 01-.21.211.213.213 0 01-.21-.21l-.155-2.415.155-5.055a.213.213 0 01.21-.212c.113 0 .205.093.21.212l.174 5.056-.174 2.413zm3.855-.068a.293.293 0 01-.287.29.292.292 0 01-.288-.288l-.108-2.348.108-5.837a.292.292 0 01.288-.29c.156 0 .285.13.287.29l.122 5.84-.122 2.343zm-1.942.03a.252.252 0 01-.249.251.251.251 0 01-.248-.25l-.132-2.376.131-5.093a.251.251 0 01.25-.25c.135 0 .244.11.248.25l.148 5.093-.148 2.377v-.002zm-4.728.077c-.006.087-.071.152-.152.152-.082 0-.147-.066-.152-.152l-.189-2.455.189-2.334c.005-.087.07-.152.152-.152.08 0 .146.065.152.151l.214 2.335-.214 2.455zm-1.84-.095c-.007.066-.055.113-.114.113-.06 0-.108-.048-.113-.113l-.212-2.36.212-2.45c.006-.064.053-.112.113-.112.059 0 .107.047.114.113l.24 2.45-.24 2.36zm6.998-7.263a.27.27 0 01.27-.272.27.27 0 01.267.271l.135 4.908-.135 2.361v-.002a.27.27 0 01-.268.271.27.27 0 01-.268-.27l-.12-2.36.12-4.907zm-3.288 7.343a.196.196 0 01-.191.192.195.195 0 01-.191-.19l-.166-2.44.166-4.666a.195.195 0 01.19-.192c.103 0 .186.084.192.192l.187 4.666-.188 2.438zm1.898-.038a.233.233 0 01-.23.23.232.232 0 01-.229-.23l-.143-2.4.143-5.226a.232.232 0 01.23-.232c.124 0 .225.102.229.232l.16 5.227-.16 2.398zm11.081-5.192c.332-.141.697-.22 1.078-.22 1.539 0 2.786 1.266 2.786 2.828 0 1.561-1.248 2.827-2.786 2.827l-7.723-.004a.34.34 0 01-.3-.334v-8.974c.002-.165.058-.25.268-.332a4.917 4.917 0 011.782-.338c2.568 0 4.674 1.999 4.895 4.547zm-7.822-3.574a.312.312 0 01.307-.31c.167 0 .304.139.307.31l.136 6.369-.136 2.312v-.003a.312.312 0 01-.307.31.311.311 0 01-.307-.307l-.126-2.312.126-6.369z" fill="#fff"/></g><defs><linearGradient id="paint0_linear_2_33" x1="15.83" y1="0" x2="15.83" y2="32" gradientUnits="userSpaceOnUse"><stop stop-color="#FF7602"/><stop offset="1" stop-color="#FF3502"/></linearGradient><clipPath id="clip0_2_33"><path fill="#fff" d="M0 0h32v32H0z"/></clipPath></defs></svg>